<?xml version="1.0" encoding="UTF-8"?>
<svg version="1.1" xmlns="http://www.w3.org/2000/svg" width="32" height="32" viewBox="0 0 32 32">
  <!-- Al' Zaátar Custom Icon - Saffron Gold on Transparent Background -->
  <g fill="#C99A3F">
    <path d="M0 0 C3.70341032 0.10287251 5.01048054 1.00931603 7.8125 3.5 C10.9048535 7.46207793 10.36717313 11.15331471 10 16 C4.72 16 -0.56 16 -6 16 C-6.61514196 6.77287066 -6.61514196 6.77287066 -3.5625 2.9375 C-2.716875 2.298125 -1.87125 1.65875 -1 1 C-0.67 0.67 -0.34 0.34 0 0 Z " transform="translate(11,8)"/>
    <path d="M0 0 C3.70341032 0.10287251 5.01048054 1.00931603 7.8125 3.5 C10.83043081 7.36672386 10.46924131 11.30758692 10 16 C9.01 16 8.02 16 7 16 C6.96261719 15.39671875 6.92523438 14.7934375 6.88671875 14.171875 C6.43746659 8.00632228 6.43746659 8.00632228 3 3 C0.97802995 3.63430953 0.97802995 3.63430953 -1 5 C-1.91599427 7.40404738 -1.91599427 7.40404738 -2.25 10.125 C-2.39953125 11.03507813 -2.5490625 11.94515625 -2.703125 12.8828125 C-2.80109375 13.58148438 -2.8990625 14.28015625 -3 15 C-3.99 15.33 -4.98 15.66 -6 16 C-6.78734859 6.98923284 -6.78734859 6.98923284 -3.5625 2.9375 C-2.716875 2.298125 -1.87125 1.65875 -1 1 C-0.67 0.67 -0.34 0.34 0 0 Z " transform="translate(11,8)"/>
    <path d="M0 0 C2.475 0.99 2.475 0.99 5 2 C5 4.97 5 7.94 5 11 C3.35 11 1.7 11 0 11 C0 7.37 0 3.74 0 0 Z " transform="translate(13,13)"/>
    <path d="M0 0 C0.99 0.33 1.98 0.66 3 1 C2.360625 1.66 1.72125 2.32 1.0625 3 C-1.58912502 6.85690912 -1.68667121 9.37840033 -2 14 C-2.99 14.33 -3.98 14.66 -5 15 C-5.76681614 6.22421525 -5.76681614 6.22421525 -3.88671875 3.22265625 C-2.5 1.875 -2.5 1.875 0 0 Z " transform="translate(10,9)"/>
    <path d="M0 0 C4.28806873 0.47645208 6.26647487 1.65902484 9 5 C9 5.66 9 6.32 9 7 C6.62051228 6.82374165 5.29774151 6.30280227 3.62109375 4.59765625 C2.37884514 3.09350908 1.18623944 1.54870149 0 0 Z " transform="translate(11,8)"/>
    <path d="M0 0 C0.99 0.33 1.98 0.66 3 1 C2.38125 1.7425 1.7625 2.485 1.125 3.25 C-0.60437281 5.48801188 -1.86106661 7.43739987 -3 10 C-3.75 8.375 -3.75 8.375 -4 6 C-2.0625 2.75 -2.0625 2.75 0 0 Z " transform="translate(10,9)"/>
    <path d="M0 0 C1.32 0.66 2.64 1.32 4 2 C3.67 2.66 3.34 3.32 3 4 C-0.0625 4.625 -0.0625 4.625 -3 5 C-1.125 1.125 -1.125 1.125 0 0 Z " transform="translate(12,10)"/>
  </g>
</svg>
